<svg xmlns="http://www.w3.org/2000/svg" width="720" height="420" font-family="'SF Mono','Cascadia Code','Consolas',monospace" font-size="13">
  <rect width="720" height="420" rx="10" fill="#0d1117"/>
  <!-- Title bar -->
  <rect width="720" height="36" rx="10" fill="#161b22"/>
  <rect y="26" width="720" height="10" fill="#161b22"/>
  <circle cx="20" cy="18" r="6" fill="#ff5f57"/>
  <circle cx="40" cy="18" r="6" fill="#febc2e"/>
  <circle cx="60" cy="18" r="6" fill="#28c840"/>
  <text x="360" y="22" text-anchor="middle" fill="#6e7681" font-size="12">compressx scan</text>
  <!-- Content -->
  <text x="20" y="60" fill="#58a6ff" font-weight="bold">  CompressX</text>
  <text x="130" y="60" fill="#6e7681"> - LLM Compression for Ollama</text>
  <text x="20" y="84" fill="#3fb950">  ✓</text><text x="40" y="84" fill="#8b949e"> Ollama running with 20 models</text>
  <text x="20" y="104" fill="#3fb950">  ✓</text><text x="40" y="104" fill="#8b949e"> NVIDIA RTX 5060 | 32 GB RAM | 8 GB VRAM</text>
  <text x="20" y="134" fill="#e6edf3">  Found 4 models that could be smaller:</text>
  <!-- Table header -->
  <text x="20" y="164" fill="#6e7681">  Model             Current     → CompressX      Savings</text>
  <text x="20" y="180" fill="#6e7681">  ─────────────────────────────────────────────────────────</text>
  <!-- Rows -->
  <text x="20" y="200" fill="#e6edf3">  qwen3:14b</text>
  <text x="170" y="200" fill="#8b949e">8.4 GB</text>
  <text x="280" y="200" fill="#3fb950">6.2 GB Q3_K_M</text>
  <text x="440" y="200" fill="#58a6ff">-26%</text>
  <text x="20" y="220" fill="#e6edf3">  gemma4:12b</text>
  <text x="170" y="220" fill="#8b949e">9.6 GB</text>
  <text x="280" y="220" fill="#3fb950">5.8 GB Q3_K_M</text>
  <text x="440" y="220" fill="#58a6ff">-40%</text>
  <text x="20" y="240" fill="#e6edf3">  llama3.1:8b</text>
  <text x="170" y="240" fill="#8b949e">4.9 GB</text>
  <text x="280" y="240" fill="#3fb950">3.1 GB Q4_K_M</text>
  <text x="440" y="240" fill="#58a6ff">-37%</text>
  <text x="20" y="260" fill="#e6edf3">  deepseek-r1:8b</text>
  <text x="170" y="260" fill="#8b949e">4.9 GB</text>
  <text x="280" y="260" fill="#3fb950">2.7 GB Q4_0</text>
  <text x="440" y="260" fill="#58a6ff">-45%</text>
  <!-- Picker -->
  <text x="20" y="294" fill="#8b949e">  ? Select models to compress:</text><text x="268" y="294" fill="#e6edf3"> (space to toggle)</text>
  <text x="20" y="314" fill="#3fb950">    ❯ ◉ qwen3:14b</text>
  <text x="20" y="334" fill="#3fb950">      ◉ gemma4:12b</text>
  <text x="20" y="354" fill="#6e7681">      ◯ llama3.1:8b</text>
  <text x="20" y="374" fill="#6e7681">      ◯ deepseek-r1:8b</text>
  <!-- Progress bar -->
  <text x="20" y="404" fill="#8b949e">  Using local Ollama blobs.</text>
  <text x="222" y="404" fill="#3fb950">~30 sec each, zero download.</text>
</svg>
